<?xml version="1.0" encoding="UTF-8" standalone="no"?>
<svg
   class="icon icon-tabler icon-tabler-code-dots"
   width="24"
   height="24"
   viewBox="0 0 24 24"
   stroke-width="1.5"
   stroke="currentColor"
   fill="none"
   stroke-linecap="round"
   stroke-linejoin="round"
   version="1.1"
   id="svg14"
   sodipodi:docname="code-dots2.svg"
   inkscape:version="1.2.2 (732a01da63, 2022-12-09)"
   xmlns:inkscape="http://www.inkscape.org/namespaces/inkscape"
   xmlns:sodipodi="http://sodipodi.sourceforge.net/DTD/sodipodi-0.dtd"
   xmlns="http://www.w3.org/2000/svg"
   xmlns:svg="http://www.w3.org/2000/svg">
  <defs
     id="defs18" />
  <sodipodi:namedview
     id="namedview16"
     pagecolor="#ffffff"
     bordercolor="#000000"
     borderopacity="0.25"
     inkscape:showpageshadow="2"
     inkscape:pageopacity="0.0"
     inkscape:pagecheckerboard="0"
     inkscape:deskcolor="#d1d1d1"
     showgrid="false"
     inkscape:zoom="19.666666"
     inkscape:cx="3.8389832"
     inkscape:cy="12.533899"
     inkscape:window-width="1920"
     inkscape:window-height="1013"
     inkscape:window-x="1991"
     inkscape:window-y="-9"
     inkscape:window-maximized="1"
     inkscape:current-layer="svg14" />
  <path
     stroke="none"
     d="M0 0h24v24H0z"
     fill="none"
     id="path2" />
  <path
     d="M15 12h.01"
     id="path4"
     style="stroke:currentColor;stroke-opacity:1" />
  <path
     d="M12 12h.01"
     id="path6"
     style="stroke:currentColor;stroke-opacity:1" />
  <path
     d="M9 12h.01"
     id="path8"
     style="stroke:currentColor;stroke-opacity:1" />
  <path
     d="M 6,19 A 2,2 0 0 1 4,17 V 13 L 3,12 4,11 V 7 A 2,2 0 0 1 6,5"
     id="path10"
     style="stroke:currentColor;stroke-opacity:1"
     sodipodi:insensitive="true" />
  <path
     d="m 18,19 a 2,2 0 0 0 2,-2 v -4 l 1,-1 -1,-1 V 7 A 2,2 0 0 0 18,5"
     id="path12"
     style="stroke:currentColor;stroke-opacity:1"
     sodipodi:insensitive="true" />
</svg>
